<?xml version="1.0" encoding="utf-8"?>
<!-- Generator: Adobe Illustrator 19.0.0, SVG Export Plug-In . SVG Version: 6.00 Build 0)  -->
<svg version="1.1" id="图层_1" xmlns="http://www.w3.org/2000/svg" xmlns:xlink="http://www.w3.org/1999/xlink" x="0px" y="0px"
	 viewBox="-205 297 200 200" style="enable-background:new -205 297 200 200;" xml:space="preserve">
<g>
	<g transform="scale(0.1953125, 0.1953125)">
		<path class="st0" d="M-535.4,2544.6c-280.6,0-508.9-228.3-508.9-508.9c0-280.6,228.3-508.9,508.9-508.9
			c280.6,0,508.9,228.3,508.9,508.9C-26.5,2316.4-254.8,2544.6-535.4,2544.6L-535.4,2544.6z M-535.4,1599.8
			c-240.4,0-435.9,195.5-435.9,435.9c0,240.3,195.5,435.9,435.9,435.9c240.3,0,435.9-195.5,435.9-435.9
			C-99.5,1795.4-295.1,1599.8-535.4,1599.8L-535.4,1599.8z M-590.2,1798.4c0,30.2,24.5,54.8,54.8,54.8c30.3,0,54.8-24.5,54.8-54.8
			c0-30.2-24.5-54.8-54.8-54.8C-565.7,1743.6-590.2,1768.1-590.2,1798.4L-590.2,1798.4z M-535.4,2327.8c-20.2,0-36.5-16.3-36.5-36.5
			v-328.6c0-20.2,16.4-36.5,36.5-36.5c20.2,0,36.5,16.4,36.5,36.5v328.6C-498.9,2311.5-515.3,2327.8-535.4,2327.8L-535.4,2327.8z"/>
	</g>
</g>
</svg>
