<?xml version="1.0" encoding="utf-8"?>
<!-- Generator: Adobe Illustrator 19.0.0, SVG Export Plug-In . SVG Version: 6.00 Build 0)  -->
<svg version="1.1" id="图层_1" xmlns="http://www.w3.org/2000/svg" xmlns:xlink="http://www.w3.org/1999/xlink" x="0px" y="0px"
	 viewBox="80 -80 200 200" style="enable-background:new 80 -80 200 200;" xml:space="preserve">
<g>
	<g transform="scale(0.1953125, 0.1953125)">
		<path d="M1421.3-265.6c16.5-16.5,16.5-43.4,0-59.8l-71.8-71.8c-16.5-16.5-43.4-16.5-59.8,0L951.5-59.2
			c-16.5,16.5-43.4,16.5-59.8,0L553.6-397.3c-16.5-16.5-43.4-16.5-59.8,0l-71.8,71.8c-16.5,16.5-16.5,43.4,0,59.8L760,72.5
			c16.5,16.5,16.5,43.4,0,59.8L421.9,470.4c-16.5,16.5-16.5,43.4,0,59.8l71.8,71.8c16.5,16.5,43.4,16.5,59.8,0L891.7,264
			c16.5-16.5,43.4-16.5,59.8,0l338.1,338.1c16.5,16.5,43.4,16.5,59.8,0l71.8-71.8c16.5-16.5,16.5-43.4,0-59.8l-338.1-338.1
			c-16.5-16.5-16.5-43.4,0-59.8L1421.3-265.6z"/>
	</g>
</g>
</svg>
