<?xml version="1.0" encoding="utf-8"?>
<!-- Generator: Adobe Illustrator 19.0.0, SVG Export Plug-In . SVG Version: 6.00 Build 0)  -->
<svg version="1.1" id="图层_1" xmlns="http://www.w3.org/2000/svg" xmlns:xlink="http://www.w3.org/1999/xlink" x="0px" y="0px"
	 viewBox="80 -80 200 200" style="enable-background:new 80 -80 200 200;" xml:space="preserve">
<g>
	<g transform="scale(0.1953125, 0.1953125)">
		<path d="M1374.6,537.6c-32.5,0-860.2,0-907.3,0c-46.4,0-69-54.7-48.6-96.4c27.9-56.9,428.8-731.9,453.8-780
			c22.4-43.2,75.9-43.9,98.3,0c34.1,66.9,433.1,738.8,452.7,777.9C1448.2,488,1416.8,537.6,1374.6,537.6L1374.6,537.6z M873.9-84.5
			l31.9,334.9h47.8l32-334.9H873.9L873.9-84.5z M985.7,298.4H873.9V394h111.7V298.4L985.7,298.4z"/>
	</g>
</g>
</svg>
