<?xml version="1.0" encoding="utf-8"?>
<!-- Generator: Adobe Illustrator 19.0.0, SVG Export Plug-In . SVG Version: 6.00 Build 0)  -->
<svg version="1.1" id="图层_1" xmlns="http://www.w3.org/2000/svg" xmlns:xlink="http://www.w3.org/1999/xlink" x="0px" y="0px"
	 viewBox="80 -80 200 200" style="enable-background:new 80 -80 200 200;" xml:space="preserve">
<g>
	<g transform="scale(0.1953125, 0.1953125)">
		<path d="M1421.3,112.3c-12.5,11.9-13.3,10.9-51,10.9h-74.5v355.4c0,54.3-31.5,86-88.9,86h-104.2l-40.3-0.6V256.8
			c0-36.9-20.9-46.3-45-46.3H832.5c-27,0-48.3,10.2-48.3,44.4v309.4l-53.6,0.2h-90.9c-54.7,0-88.9-28.3-88.9-91.1V123.3H474
			c-40.5,0-42.8-5.7-52.4-16.4c-19-21.3-18-47.7,30.5-84.2l426.5-362C891-348,903.9-365,919.9-365h6.8c16.2,0,28.9,13.5,41.6,22.3
			l422.4,365.3C1431.4,47.4,1446.5,88.1,1421.3,112.3L1421.3,112.3z"/>
	</g>
</g>
</svg>
