<?xml version="1.0" encoding="utf-8"?>
<!-- Generator: Adobe Illustrator 19.0.0, SVG Export Plug-In . SVG Version: 6.00 Build 0)  -->
<svg version="1.1" xmlns="http://www.w3.org/2000/svg" xmlns:xlink="http://www.w3.org/1999/xlink" x="0px" y="0px"
	 viewBox="-205 297 200 200" xml:space="preserve">
<g>
	<g transform="scale(0.1953125, 0.1953125)">
		<path d="M-73.6,1708.9h-928.7c-26.5,0-48-20.7-48-46.3c0-25.5,21.5-46.2,48-46.2h928.7c26.5,0,48,20.7,48,46.2
			C-25.6,1688.2-47.1,1708.9-73.6,1708.9z M-1002.3,1863.1h272.2H-522h48l0,0h208.2c26.5,0,48,20.7,48,46.2
			c0,25.5-21.5,46.3-48,46.3h-96.1h0h-368.3l0,0h-272.2c-26.5,0-48-20.7-48-46.3C-1050.3,1883.8-1028.8,1863.1-1002.3,1863.1z
			 M-1002.3,2109.7h928.7c26.5,0,48,20.7,48,46.3c0,25.5-21.5,46.2-48,46.2h-928.7c-26.5,0-48-20.7-48-46.2
			C-1050.3,2130.5-1028.8,2109.7-1002.3,2109.7z M-1002.3,2356.4h272.2H-522h160.1c26.5,0,48,20.7,48,46.3c0,25.5-21.5,46.2-48,46.2
			H-522l0,0h-480.4c-26.5,0-48-20.7-48-46.2C-1050.3,2377.1-1028.8,2356.4-1002.3,2356.4z"/>
	</g>
</g>
</svg>
