<?xml version="1.0" encoding="utf-8"?>
<!-- Generator: Adobe Illustrator 19.0.0, SVG Export Plug-In . SVG Version: 6.00 Build 0)  -->
<svg version="1.1" id="图层_1" xmlns="http://www.w3.org/2000/svg" xmlns:xlink="http://www.w3.org/1999/xlink" x="0px" y="0px"
	 viewBox="-205 297 200 200" style="enable-background:new -205 297 200 200;" xml:space="preserve">
<g>
	<g transform="scale(0.1953125, 0.1953125)">
		<path d="M-537.3,1516.6c0.1,0,0.2,0,0.3,0c0.1,0,0.2,0,0.3,0H-537.3z M-168,1958.2c-9,0-60.8,0.3-70.5,0.3v-154.9
			c0-172.6-116.8-286.9-298.5-287c-181.9,0.1-300.9,120.2-300.9,287v153.8c-6.2,0-72.2,0.8-78.1,0.8c-43.7,0-71.8,35.5-71.8,73.8
			v437.4c0,43.3,24.1,75.3,70.5,75.3h751.3c36.3,0,77.7-31.3,77.7-87.5l0-415.2C-88.2,1998.7-103.2,1958.2-168,1958.2z
			 M-437.8,2350.9c0,54.1-44.7,98-100,98c-55.2,0-100-43.9-100-98v-1.5c0-36.3,20.1-67.9,49.9-84.9v-180.8
			c0-25.8,21.3-28.3,47.7-28.3c26.3,0,52.3,2.5,52.3,28.3v180.8c29.9,17,49.9,48.6,49.9,84.9L-437.8,2350.9L-437.8,2350.9z
			 M-337.2,1957h-399.9V1760c0-94.6,110.6-146,193.9-146h18.3c83.5,0,187.7,47.9,187.7,146V1957z"/>
	</g>
</g>
</svg>
