<?xml version="1.0" encoding="utf-8"?>
<!-- Generator: Adobe Illustrator 19.0.0, SVG Export Plug-In . SVG Version: 6.00 Build 0)  -->
<svg version="1.1" id="图层_1" xmlns="http://www.w3.org/2000/svg" xmlns:xlink="http://www.w3.org/1999/xlink" x="0px" y="0px"
	 viewBox="80 -80 200 200" style="enable-background:new 80 -80 200 200;" xml:space="preserve">
<g>
	<g transform="scale(0.1953125, 0.1953125)">
		<path d="M1345-375.8H494.5c-46.1,0-83.5,37.5-83.5,83.5v607.5c0,46,37.5,83.5,83.5,83.5h341.7v138.4H565.9
			c-10.8,0-19.5,11.4-19.5,25.4v4.2c0,14,8.7,25.4,19.5,25.4h707.7c10.8,0,19.5-11.4,19.5-25.4v-4.2c0-14-8.7-25.4-19.5-25.4h-271
			l0.6-138.4H1345c46.1,0,83.5-37.5,83.5-83.5v-607.5C1428.5-338.3,1391.1-375.8,1345-375.8L1345-375.8L1345-375.8z M1383,315.2
			c0,21-17,38-38,38H957.9l-0.7,183.9h-75.3V353.2H494.5c-21,0-38-17-38-38l0-607.5c0-20.9,17-38,38-38H1345c21,0,38,17,38,38V315.2
			L1383,315.2L1383,315.2z M1132.4,49.5H707.1c-29.3,0-53.1,23.8-53.1,53.1v60.8c0,29.3,23.8,53.1,53.1,53.1h425.3
			c29.3,0,53.1-23.8,53.1-53.1v-60.8C1185.5,73.3,1161.7,49.5,1132.4,49.5L1132.4,49.5L1132.4,49.5z M1140,163.3
			c0,4.2-3.4,7.6-7.6,7.6l-425.3,0c-4.2,0-7.6-3.4-7.6-7.6v-60.8c0-4.2,3.4-7.6,7.6-7.6h425.3c4.2,0,7.6,3.4,7.6,7.6L1140,163.3
			L1140,163.3L1140,163.3z M1132.4-193.5H707.1c-29.3,0-53.1,23.8-53.1,53.1v60.7c0,29.3,23.8,53.1,53.1,53.1h425.3
			c29.3,0,53.1-23.8,53.1-53.1v-60.7C1185.5-169.7,1161.7-193.5,1132.4-193.5L1132.4-193.5L1132.4-193.5z M1140-79.7
			c0,4.2-3.4,7.6-7.6,7.6H707.1c-4.2,0-7.6-3.4-7.6-7.6v-60.8c0-4.2,3.4-7.6,7.6-7.6h425.3c4.2,0,7.6,3.4,7.6,7.6L1140-79.7
			L1140-79.7L1140-79.7z"/>
	</g>
</g>
</svg>
