<?xml version="1.0" encoding="utf-8"?>
<!-- Generator: Adobe Illustrator 19.0.0, SVG Export Plug-In . SVG Version: 6.00 Build 0)  -->
<svg version="1.1" id="图层_1" xmlns="http://www.w3.org/2000/svg" xmlns:xlink="http://www.w3.org/1999/xlink" x="0px" y="0px"
	 viewBox="80 -80 200 200" style="enable-background:new 80 -80 200 200;" xml:space="preserve">
<g>
	<g transform="scale(0.1953125, 0.1953125)">
		<path d="M451.8-388.2h-38.6v946.3h1015.4v-37.9l-976.2-2L451.8-388.2z M960-348.8c0-21.8-17.5-39.4-39.1-39.4H803.8
			c-21.6,0-39.1,17.7-39.1,39.4v788.6H960L960-348.8L960-348.8z M725.6-112.2c0-21.8-17.5-39.4-39.1-39.4H569.4
			c-21.6,0-39.1,17.7-39.1,39.4v552h195.3L725.6-112.2L725.6-112.2z M1194.3,124.4c0-21.8-17.5-39.4-39.1-39.4h-117.2
			c-21.6,0-39.1,17.7-39.1,39.4v315.4h195.3L1194.3,124.4L1194.3,124.4z M1389.6,321.5h-117.2c-21.6,0-39.1,17.7-39.1,39.4v78.9
			h195.3v-78.9C1428.6,339.2,1411.2,321.5,1389.6,321.5z"/>
	</g>
</g>
</svg>
