<?xml version="1.0" encoding="utf-8"?>
<!-- Generator: Adobe Illustrator 19.0.0, SVG Export Plug-In . SVG Version: 6.00 Build 0)  -->
<svg version="1.1" xmlns="http://www.w3.org/2000/svg" xmlns:xlink="http://www.w3.org/1999/xlink" x="0px" y="0px"
	 viewBox="-205 297 200 200" xml:space="preserve">
<g>
	<g transform="scale(0.1953125, 0.1953125)">
		<path d="M-920.7,1615.4c7.9-61.8,33.3-91,77.9-92.6c48.8-1.7,74.1,24.9,86.1,92.1c145.8,0,292,0,430.8,0
			c16.7-28.4,28.1-56.3,47.2-77.1c10.3-11.2,33.9-14.2,51.4-14.2c42.5,0.1,65.1,28.8,75.2,93.2c12.4,0,25.6-0.2,38.9,0
			c56.6,0.9,87.3,30.5,87.5,87.2c0.6,129,0.2,258,0.2,387c0,119.2,0.2,238.5-0.1,357.7c-0.1,68.8-27.3,95.8-95.8,95.8
			c-275.6,0.1-551.2,0.1-826.8,0c-72.3,0-99.4-26.8-99.4-98.5c-0.1-243.4,0-486.7,0-730.1c0-71.4,27.3-98.5,99.2-99.3
			C-939.7,1616.7-931.1,1615.9-920.7,1615.4z M-985.4,1898.5c0,14.6,0,24.3,0,33.9c0,170,0,340,0,510c0,38,1.1,39.1,39.8,39.1
			c272.6,0,545.2,0,817.8,0c39.6,0,41.2-1.4,41.2-41.3c0.1-169-0.7-338.1,0.7-507.1c0.2-29.1-9.2-35.4-36.6-35.3
			c-275.5,1-551.1,0.6-826.6,0.6C-959.7,1898.5-970.2,1898.5-985.4,1898.5z M-284.1,1672.1c0.1,0,0.3,0,0.4,0
			c0,24.3-1.7,48.8,0.4,73c2.6,29.5,23.3,47.9,49.5,47.7c27.3-0.2,48-20.6,48.8-51.4c1.1-45.8,1-91.6,0.1-137.3
			c-0.6-30.6-20.9-50.9-48.6-51.9c-26.7-1-48.5,19.6-50.4,49.8C-285.2,1625.3-284.1,1648.7-284.1,1672.1z M-889,1669.5
			c0.1,0,0.3,0,0.4,0c0,25.3-1.6,50.8,0.4,76c2.3,28.6,24.2,47.7,50.1,47.3c26.4-0.4,47.4-19.5,48.3-48.8c1.5-47.7,1.5-95.5,0-143.2
			c-0.9-28.8-22.6-48.3-48.7-48.7c-26.9-0.4-48.6,20.5-50.2,50.3C-889.9,1624.7-889,1647.1-889,1669.5z M-864.5,2379.1
			c0-24,0-45.2,0-68.5c47.6,0,94,0,142.5,0c0,21.7,0,43.7,0,68.5C-768.2,2379.1-815.2,2379.1-864.5,2379.1z M-606.1,2379.8
			c0-23.7,0-45.7,0-69.4c47.6,0,93.8,0,141.5,0c0,23.6,0,45.5,0,69.4C-512.5,2379.8-558.7,2379.8-606.1,2379.8z M-349.2,2379.9
			c0-25.7,0-46.8,0-69.6c46.2,0,90.6,0,137.5,0c0,22.4,0,45.1,0,69.6C-257.1,2379.9-302.4,2379.9-349.2,2379.9z M-721,2017.5
			c0,22.8,0,43.7,0,66.7c-47.4,0-93.6,0-142.3,0c0-21.5,0-43.2,0-66.7C-816.9,2017.5-770.6,2017.5-721,2017.5z M-606,2084
			c0-23.4,0-44.4,0-66.6c47.7,0,93.8,0,141.4,0c0,22.5,0,43.4,0,66.6C-511.5,2084-557.5,2084-606,2084z M-864,2230.7
			c0-22.5,0-43.4,0-65.9c48,0,94.3,0,142.4,0c0,21.8,0,42.8,0,65.9C-768.1,2230.7-814.4,2230.7-864,2230.7z M-605.7,2164.5
			c48,0,93.4,0,140.7,0c0,22.2,0,43,0,66.1c-46.7,0-92.8,0-140.7,0C-605.7,2209.1-605.7,2188.2-605.7,2164.5z M-211.3,2084.4
			c-46,0-91,0-137.8,0c0-22.7,0-43.6,0-66.6c45.6,0,90.7,0,137.8,0C-211.3,2039.4-211.3,2061.1-211.3,2084.4z M-210.4,2165.5
			c0,22.6,0,42.8,0,65.2c-46.1,0-91.1,0-138.4,0c0-21.7,0-42.5,0-65.2C-302.4,2165.5-256.6,2165.5-210.4,2165.5z"/>
	</g>
</g>
</svg>
