<?xml version="1.0" encoding="utf-8"?>
<!-- Generator: Adobe Illustrator 19.0.0, SVG Export Plug-In . SVG Version: 6.00 Build 0)  -->
<svg version="1.1" id="图层_1" xmlns="http://www.w3.org/2000/svg" xmlns:xlink="http://www.w3.org/1999/xlink" x="0px" y="0px"
	 viewBox="80 -80 200 200" style="enable-background:new 80 -80 200 200;" xml:space="preserve">
<g>
	<g transform="scale(0.1953125, 0.1953125)">
		<path d="M1409.8,148l-210.6-0.3c-11.4,3-23-3.7-26.1-15l-31.8-101l-99.5,466.9c0,0-2,24.6-15.3,24.6c-13.3,0-35.8,0.4-35.8,0.4
			c-11,2.9-22.3-3.6-25.2-14.6L842.2-99.9l-93.5,439.9c-3,11-15.9,20.2-27.1,17.3l-33.1,0.5c-11.6,3.1-23.5-3.7-26.6-15.1L599.4,148
			H430.9c-11.8,0-21.3-9.5-21.3-21.3V84.2c0-11.8,9.5-21.3,21.3-21.3l209.5-0.7c12.7-0.4,23.5,1,26.6,12.4l32.4,101.2l91.3-477.6
			c0,0,4.5-14.5,19.2-14.5c14.6,0,45.4-0.6,45.4-0.6c11-2.9,22.3,3.6,25.2,14.6l122.3,604.3l90.4-434c2.9-11,11.6-20.2,22.6-17.2
			l36.3-0.4c11.4-3,23,3.7,26.1,15l62.1,197.5h169.4c11.8,0,21.3,9.5,21.3,21.3v42.6C1431.1,138.5,1421.5,148,1409.8,148z"/>
	</g>
</g>
</svg>
