<?xml version="1.0" encoding="utf-8"?>
<!-- Generator: Adobe Illustrator 19.0.0, SVG Export Plug-In . SVG Version: 6.00 Build 0)  -->
<svg version="1.1" id="图层_1" xmlns="http://www.w3.org/2000/svg" xmlns:xlink="http://www.w3.org/1999/xlink" x="0px" y="0px"
	 viewBox="80 -80 200 200" style="enable-background:new 80 -80 200 200;" xml:space="preserve">
<g>
	<g transform="scale(0.1953125, 0.1953125)">
		<path d="M921.6,614.4c-282.7,0-512-229.3-512-512c0-282.8,229.3-512,512-512c282.8,0,512,229.2,512,512
			C1433.6,385.1,1204.4,614.4,921.6,614.4z M921.6,409.6c56.6,0,102.4-45.9,102.4-102.4s-45.8-102.4-102.4-102.4
			c-56.5,0-102.4,45.9-102.4,102.4S865.1,409.6,921.6,409.6z M921.6-307.2C695.4-307.2,512-123.8,512,102.4
			c0,54.4,10.8,106.1,30.1,153.6h182c22.8-88.2,102.2-153.6,197.5-153.6c38.4,0,74,11,104.6,29.4L1140,18c20-20,52.4-20,72.4,0
			c20,20,20,52.4,0,72.4l-114.7,114.6c9.2,15.9,16.8,32.7,21.5,50.9h182c19.1-47.5,30-99.2,30-153.6
			C1331.2-123.8,1147.8-307.2,921.6-307.2z M921.6-204.8c76.2,0,145,28.8,198.7,74.6l-58.4,83.4c-36.8-34.6-85.9-56.1-140.3-56.1
			c-105.6,0-191.6,80.1-203,182.7L620.3,44C647.6-97.7,771.9-204.8,921.6-204.8z"/>
	</g>
</g>
</svg>
