<?xml version="1.0" encoding="utf-8"?>
<!-- Generator: Adobe Illustrator 19.0.0, SVG Export Plug-In . SVG Version: 6.00 Build 0)  -->
<svg version="1.1" id="图层_1" xmlns="http://www.w3.org/2000/svg" xmlns:xlink="http://www.w3.org/1999/xlink" x="0px" y="0px"
	 viewBox="80 -80 200 200" style="enable-background:new 80 -80 200 200;" xml:space="preserve">
<g>
	<g transform="scale(0.1953125, 0.1953125)">
		<path d="M1421.5,520.6l-252.9-252.8c-0.9-0.9-1.9-1.8-2.9-2.7c54-70.8,86.1-159.2,86.1-255.1c0-232.6-188.6-421.2-421.2-421.2
			c-232.6,0-421.2,188.6-421.2,421.2c0,232.6,188.6,421.2,421.2,421.2c96.1,0,184.7-32.2,255.6-86.4c0.8,1,1.7,2,2.6,2.9
			l252.9,252.8c18.4,18.5,51.3,15.5,73.4-6.5C1437,571.9,1439.9,539.1,1421.5,520.6z M456.2,10c0-206.8,167.6-374.4,374.4-374.4
			c206.8,0,374.4,167.6,374.4,374.4c0,101.4-40.3,193.4-105.8,260.8c-1.3,1.1-2.6,2.3-3.8,3.5c-1.3,1.3-2.5,2.6-3.6,3.9
			c-67.4,65.6-159.5,106.1-261.1,106.1C623.8,384.4,456.2,216.8,456.2,10z"/>
	</g>
</g>
</svg>
