<?xml version="1.0" encoding="utf-8"?>
<!-- Generator: Adobe Illustrator 19.0.0, SVG Export Plug-In . SVG Version: 6.00 Build 0)  -->
<svg version="1.1" id="图层_1" xmlns="http://www.w3.org/2000/svg" xmlns:xlink="http://www.w3.org/1999/xlink" x="0px" y="0px"
	 viewBox="80 -80 200 200" style="enable-background:new 80 -80 200 200;" xml:space="preserve">
<g>
	<g transform="scale(0.1953125, 0.1953125)">
		<path d="M500.5,390.4c3.9-7.6,6.3-14.2,10.4-19.7c20-26.6,40.3-53,60.9-79.2c4.7-6.1,5-10.5,1.6-17.6c-7.4-15.5-13-32-20.3-47.6
			c-1.9-4.2-7.1-8.7-11.4-9.4c-34.1-5.8-68.3-11-102.6-15.7c-23.5-3.2-29.6-9.6-29.6-33.6c0-45.3-0.1-90.7,0.1-136
			c0-19.3,7.1-27.2,26.3-30C471.5-3.8,507-9,542.4-14.9c4.3-0.7,9.3-5.5,11.4-9.6c7-14.3,12.3-29.5,19.3-43.8c3.2-6.6,3-11-1.4-16.7
			c-20.9-26.5-41.5-53.3-62.4-79.8c-12.3-15.6-14.2-24.8-0.9-38.9c33.5-35.5,67.5-70.5,103.1-103.9c18.9-17.7,27.2-15.9,47.8,0
			c25.3,19.6,50.7,39,75.6,59c6.4,5.1,11.3,6,18.8,1.9c10.4-5.7,21.4-11.6,32.9-13.9c16.9-3.5,18.8-14.7,20.7-28.4
			c4.7-32.9,9.8-65.7,15.8-98.4c3.2-17.7,9.9-22.3,27.5-22.3c47.5-0.1,95.1-0.1,142.6,0c17.5,0,24.8,6.6,27.3,24
			c5.5,35.5,10.9,71,16.1,106.5c1.2,8.2,4.4,13,12.9,15.9c13.9,4.6,26.9,11.6,40.8,16.1c4.7,1.6,12.2,0.8,16.2-2
			c28.8-20.8,57-42.5,85.4-63.8c12.2-9.2,24.2-9.9,34.8,0.7c35.1,34.6,70,69.5,103.7,105.4c15.3,16.3,14.2,25.1,0.2,43.5
			c-19.6,25.8-39.3,51.6-59.5,77c-4.4,5.6-4.9,9.8-1.8,16.5c7.6,16,13.5,32.8,21,48.8c1.7,3.8,6.7,7.9,10.8,8.6
			c35.8,6,71.8,11.2,107.8,16.8c18.3,2.9,24.8,10.7,24.9,29.8c0.1,46.2,0.1,92.4,0,138.7c-0.1,20-7.5,27.9-27.1,30.7
			c-36,5.1-71.9,10.5-107.8,16.4c-3.4,0.6-7.5,4.3-9.1,7.6c-7.3,15.6-14.2,31.5-20.2,47.6c-1.4,3.8,0.1,10.4,2.8,13.8
			c19.8,26.2,40.1,52.1,60.4,78c15,19.1,16.5,26.9,0.4,44.1c-32.2,34.3-65.2,67.9-99.3,100.2c-19.8,18.7-29.7,17.2-51.1,0.4
			c-24.9-19.5-49.8-38.7-74.4-58.5c-6-4.8-10.6-5.3-17.7-1.8c-13.5,6.6-27.6,11.9-41.7,17.1c-6.6,2.4-9.4,5.6-10.4,13
			c-5.5,37.2-11.4,74.5-17.9,111.6c-3,16.4-10.3,21.4-26.9,21.4c-47.5,0.1-95.1,0.1-142.6,0c-18.2-0.1-25-6.4-27.8-25
			c-5.3-35.1-10.9-70.1-15.9-105.2c-1.3-8.8-4.6-13.9-13.8-16.7c-13.5-4.1-26.1-11-39.6-15.4c-4.8-1.6-12.3-1.1-16.3,1.7
			c-27.3,19.8-54,40.6-80.8,61c-18.2,13.9-27.8,13.9-44.1-2.2c-33.8-33.4-67.1-67.3-100.2-101.4C507,405.7,504.6,397.7,500.5,390.4z
			 M664.7,101.4c-0.7,141,113.2,256.2,254.9,257.9c141.1,1.7,258-113.9,258.8-255.9c0.9-141-113-256.2-254.8-257.6
			C781.5-155.7,665.5-41.1,664.7,101.4z"/>
	</g>
</g>
</svg>
