<?xml version="1.0" encoding="utf-8"?>
<!-- Generator: Adobe Illustrator 19.0.0, SVG Export Plug-In . SVG Version: 6.00 Build 0)  -->
<svg version="1.1" id="图层_1" xmlns="http://www.w3.org/2000/svg" xmlns:xlink="http://www.w3.org/1999/xlink" x="0px" y="0px"
	 viewBox="80 -80 200 200" style="enable-background:new 80 -80 200 200;" xml:space="preserve">
<g>
	<g transform="scale(0.1953125, 0.1953125)">
		<path d="M921.6-409.6c-43.8,0-79.3,35.5-79.3,79.3V66.4c0,43.8,35.5,79.3,79.3,79.3c43.8,0,79.3-35.5,79.3-79.3v-396.7
			C1000.9-374.1,965.4-409.6,921.6-409.6z M921.6,614.4c-280.3,0-508.3-228-508.3-508.3c0-156.6,70.6-302.1,193.7-399.3
			c25.8-20.3,63.2-15.9,83.6,9.9c20.4,25.8,16,63.2-9.9,83.6c-94.3,74.4-148.4,185.9-148.4,305.9c0,214.6,174.6,389.3,389.3,389.3
			c214.6,0,389.2-174.7,389.2-389.3c0-120-54.1-231.5-148.5-305.9c-25.8-20.4-30.2-57.8-9.9-83.6c20.4-25.8,57.8-30.2,83.6-9.9
			c123.2,97.1,193.9,242.7,193.9,399.4C1429.9,386.4,1201.9,614.4,921.6,614.4L921.6,614.4z"/>
	</g>
</g>
</svg>
