<?xml version="1.0" standalone="no"?><!DOCTYPE svg PUBLIC "-//W3C//DTD SVG 1.1//EN" "http://www.w3.org/Graphics/SVG/1.1/DTD/svg11.dtd"><svg width="200" height="200" viewBox="0 0 200 200" version="1.1" xmlns="http://www.w3.org/2000/svg" xmlns:xlink="http://www.w3.org/1999/xlink"><defs><style type="text/css"><![CDATA[
@font-face { font-family: ifont; src: url("http://at.alicdn.com/t/font_1442373896_4754455.eot?#iefix") format("embedded-opentype"), url("http://at.alicdn.com/t/font_1442373896_4754455.woff") format("woff"), url("http://at.alicdn.com/t/font_1442373896_4754455.ttf") format("truetype"), url("http://at.alicdn.com/t/font_1442373896_4754455.svg#ifont") format("svg"); }

]]></style></defs><g class="transform-group"><g transform="scale(0.1953125, 0.1953125)"><path d="M511.748 1023.727c-136.687 0-265.212-53.215-361.889-149.84C53.195 777.173-0.025 648.598 0 511.868c0-136.747 53.247-265.299 149.937-361.977C246.604 53.235 375.134 0 511.848 0c136.72 0 265.269 53.23 361.979 149.882 199.539 199.604 199.539 524.346 0 723.906C777.078 970.472 648.483 1023.727 511.748 1023.727zM511.848 59.905c-120.73 0-234.224 46.995-319.582 132.33C106.904 277.569 59.89 391.079 59.89 511.868c-0.02 120.78 46.972 234.299 132.31 319.659 85.38 85.345 198.869 132.35 319.549 132.35 120.75 0 234.294-47.045 319.724-132.45 176.21-176.205 176.21-462.934 0-639.186C746.098 106.905 632.588 59.905 511.848 59.905zM720.128 714.683c-6.27 0-12.52-1.775-18.58-5.265l-177.13-107.37c-0.99-0.565-1.99-1.13-3.045-1.705-5.325-2.965-12.605-7.02-15.145-10.845l-0.475-0.715-0.745-0.435c-25.507-14.625-30.862-26.3-30.862-33.52L474.146 254.112c0-21.677 17.632-39.315 39.307-39.315 21.685 0 39.325 17.637 39.325 39.315l0 283.142 178.19 103.05 0 0 1.825 1.06c9.38 5.405 16.835 14.205 20.445 24.15 3.735 10.31 3.025 20.785-2.02 29.51-7.21 12.5-18.54 19.66-31.085 19.66C720.133 714.683 720.133 714.683 720.128 714.683z"></path></g></g></svg>