<?xml version="1.0" encoding="utf-8"?>
<!-- Generator: Adobe Illustrator 19.0.0, SVG Export Plug-In . SVG Version: 6.00 Build 0)  -->
<svg version="1.1" id="图层_1" xmlns="http://www.w3.org/2000/svg" xmlns:xlink="http://www.w3.org/1999/xlink" x="0px" y="0px"
	 viewBox="-205 297 200 200" style="enable-background:new -205 297 200 200;" xml:space="preserve">
<g>
	<g transform="scale(0.1953125, 0.1953125)">
		<path d="M-539.1,2544.4c-60,0-120.1,0.6-180.1-0.2c-38.1-0.5-76.2-2-114.2-4.7c-34.4-2.5-68.5-7.8-100.6-21.5
			c-18-7.7-33.7-18.6-43.4-36.4c-5.8-10.6-7.8-22.1-8.2-34.1c-2.3-64.5,9.9-125.9,41.6-182.6c41.2-73.7,101.6-125.5,180.3-156
			c40.6-15.7,82.9-22.6,126.3-22.7c66.7-0.1,133.4-0.3,200.1,0c88.5,0.4,166.8,28.8,233.2,87.5c59.2,52.4,95.9,117.9,109.9,196
			c5,27.9,5.9,56.1,4.4,84.3c-1.3,25.1-15.4,42.8-36.3,55.4c-21.4,12.9-45.2,19-69.4,23.5c-57.8,10.6-116.4,11-174.9,11.5
			c-56.2,0.5-112.5,0.1-168.7,0.1C-539.1,2544.5-539.1,2544.4-539.1,2544.4z M-274.1,1793.6c0,113.2-75.6,216.4-189.6,253
			C-609,2093.3-762.8,2013.9-809,1871c-34-105.4,2.5-222.7,89.9-290.9c41.9-32.7,89.2-52.4,142-57.9
			c137.8-14.3,261.1,73.7,294.4,201.4C-277,1745.5-274.3,1767.7-274.1,1793.6z"/>
	</g>
</g>
</svg>
