<?xml version="1.0" encoding="utf-8"?>
<!-- Generator: Adobe Illustrator 19.0.0, SVG Export Plug-In . SVG Version: 6.00 Build 0)  -->
<svg version="1.1" id="图层_1" xmlns="http://www.w3.org/2000/svg" xmlns:xlink="http://www.w3.org/1999/xlink" x="0px" y="0px"
	 viewBox="80 -80 200 200" style="enable-background:new 80 -80 200 200;" xml:space="preserve">
<g>
	<g transform="scale(0.1953125, 0.1953125)">
		<path d="M920.8-411.3c-283.2,0-512.8,229.6-512.8,512.8s229.6,512.8,512.8,512.8s512.8-229.6,512.8-512.8S1204-411.3,920.8-411.3z
			 M964.6-374.9c0,0,32.1-18.6,43.3-7.5c11.2,11.2,50.3-1.9,150.9,57.8c0,0-22.2,23.6-27,22.2c2.8,5.1,11.5,20.8,17.7,30.5
			c7.5,11.7,9.3,12.5,9.3,12.5l-7.5,11.2l7.5,1.9c-7.5-1.9-11.2,20.5-22,24.2c-10.8,3.7,3.3,24.2-0.4,27.9c-3.7,3.7,1.9,37.3,0,57
			c-1.9,19.8-9.3,2.6-18.6,0c-9.3-2.6-24.2-8.6-25.5-14.2c-1.3-5.6-4.3-22.4-0.6-31.7c3.7-9.3-11.2-18.6-18.6-25.5s-37.3,1.2-42.9,0
			c-5.6-1.2-9.3-17.4-9.3-32.3c0-14.9,26.1,1.9,40.8,0c14.7-1.9,17-39,17-39l-0.8-31.6l0,0c-6-2.4-7-5.5,2.7-9.5
			c0,0-31.7-7.5-39.1,9.3c-7.5,16.8-11.2,15.1-13,31.8c-1.9,16.7-31.1,2-37.9,0c-6.8-2-25.5-24.3-25.5-24.3
			c5.6-13,9.3-22.4,9.3-22.4l-9.8-22.4V-374.9z M670.6-201.7c3.2-4.2,24.2-41,50.3-29.8c26.1,11.2,42.9-13,42.9-13
			s38.3-39.1,40.6-33.5c0.8,2,1.7,4.1,2.3,5.6c-2.3-5.6,31.7-14.9,35.4,3.7c3.7,18.6,26.1,28,26.1,28s-13,22.3-9.3,39.1
			c3.7,16.8,16.8,20.5,9.3,35.4c-7.5,14.9-22.4,20.5-26.1,27.9c-3.7,7.5-34.4-24.2-37.7-35.4c-3.3-11.2-19.7-22.4-33.9-18.6
			c-14.2,3.7-51.4,13-58.9,9.3C704.2-186.8,661.9-190,670.6-201.7z M1170,346.1c-14.9,39.1-50.3,106.2-68.9,124.8s-41,54-57.8,67.1
			c-16.8,13-16.8,37.3-37.3,35.4s-44.7-59.6-39.1-74.5c5.6-14.9-102.5-41-102.5-41s-46.6-5.6-55.9-95c-1.7-15.9-2.7-27.2-3.4-35.1
			c-14-6.2-68.9-28.9-102.8-20.8c-39.1,9.3-48.4-12.4-82-17.4l-57.8-53.4c0,0-95-109.9-83.8-128.6s11.2-68.9,13-80.1
			c1.9-11.2-14.9-82-14-91.3c0.9-9.3-14-44.7-14-44.7s35.4-74.5,41-74.5s26.1,63.3,46.6,65.2c20.5,1.9,76.4-1.9,84.8-11.2
			c8.4-9.3,15.8-20.5,25.2-20.5s9.3-5.6,26.1,1.9c16.8,7.5,35.4,18.6,42.9,29.8c7.5,11.2-5.6,33.5,33.5,33.5
			c39.1,0,39.1-9.3,44.7,16.8c5.6,26.1,12.2,83.8-4.1,87.6c-16.4,3.7-64.8,60.4-61.1,78.7c3.7,18.2,3.7,46.2-3.7,62.9
			c-7.5,16.8-13,22.4-41,20.5c-27.9-1.9-51.6-16.8-59.3,5.6s-22.6,72.7,3.4,67.6c0,0,41-12.5,55.9,0
			c14.9,12.5,109.9,53.5,109.9,53.5s85.7-93.2,219.9-33.5l22.4,14.9l37.3-8.1c0,0,48.4-14.3,65.2-10.5c16.8,3.7,16.8,3.7,16.8,3.7
			v-7.5C1170,267.9,1184.9,307,1170,346.1z M1388,133.7c0,0-11.2-16.8-11.2-34.4s-13-15.9-13-38.3c0-22.4-16.8-14.9-27.9-29.8
			c-11.2-14.9-16.8,5.6-26.1,7.5c-9.3,1.9-7.5,16.8-16.8,34.5c-9.3,17.7-33.5,28.9-41,25.6c-7.5-3.3-35.4-28.4-37.3-34
			c-1.9-5.6-39.1-37.3-38.1-44.7c1-7.5-10.4-46.6-17.8-65.2c-7.5-18.6,0-92,0-92c-11.2-6.3,102.5-53.3,87.6-58.9
			c-14.9-5.6-22.4-67.1-22.4-67.1s0,0,54.2,27.9C1332.5-207.3,1401,14.5,1401,14.5v63.3L1388,133.7z"/>
	</g>
</g>
</svg>
